<svg  width="48" height="48" viewBox="0 0 48 48" fill="none" xmlns="http://www.w3.org/2000/svg">
<path d="M44 40H4C1.794 40 0 38.206 0 36V12C0 9.794 1.794 8 4 8H44C46.206 8 48 9.794 48 12V36C48 38.206 46.206 40 44 40ZM4 10C2.897 10 2 10.897 2 12V36C2 37.103 2.897 38 4 38H44C45.103 38 46 37.103 46 36V12C46 10.897 45.103 10 44 10H4Z" fill="#FF5400"/>
<path d="M24.0004 29.191L6.45741 17.84C5.99341 17.539 5.86041 16.921 6.16041 16.457C6.46041 15.993 7.07941 15.861 7.54341 16.16L24.0004 26.809L40.4574 16.16C40.9214 15.861 41.5404 15.993 41.8404 16.457C42.1404 16.921 42.0074 17.539 41.5434 17.84L24.0004 29.191Z" fill="#FF5400"/>
<path d="M6.0006 34C5.6776 34 5.3596 33.844 5.1676 33.555C4.8606 33.095 4.9846 32.475 5.4446 32.168L14.4446 26.168C14.9046 25.861 15.5256 25.985 15.8316 26.445C16.1386 26.905 16.0146 27.525 15.5546 27.832L6.5546 33.832C6.3836 33.945 6.1906 34 6.0006 34Z" fill="#FF5400"/>
<path d="M41.9986 34C41.8086 34 41.6156 33.945 41.4446 33.832L32.4446 27.832C31.9846 27.525 31.8606 26.905 32.1676 26.445C32.4736 25.985 33.0936 25.861 33.5546 26.168L42.5546 32.168C43.0146 32.475 43.1386 33.095 42.8316 33.555C42.6396 33.844 42.3216 34 41.9986 34Z" fill="#FF5400"/>
</svg>
